<?xml version="1.0" standalone="no"?>
<!DOCTYPE svg PUBLIC "-//W3C//DTD SVG 20010904//EN"
 "http://www.w3.org/TR/2001/REC-SVG-20010904/DTD/svg10.dtd">
<svg version="1.0" xmlns="http://www.w3.org/2000/svg"
 width="600.000000pt" height="600.000000pt" viewBox="0 0 600.000000 600.000000"
 preserveAspectRatio="xMidYMid meet">

<g transform="translate(0.000000,600.000000) scale(0.100000,-0.100000)"
fill="#000000" stroke="none">
<path d="M2930 5821 c-31 -24 -1139 -737 -1985 -1276 -171 -109 -327 -213
-347 -233 -72 -69 -68 14 -68 -1366 0 -1185 1 -1243 19 -1281 10 -22 29 -50
42 -62 13 -11 321 -203 684 -425 1042 -639 1627 -999 1665 -1024 45 -31 94
-31 139 0 20 13 551 340 1181 726 630 386 1159 715 1177 732 18 18 36 48 42
74 16 63 15 2492 -1 2545 -15 51 -57 93 -154 154 -43 27 -551 353 -1129 724
-577 371 -1074 689 -1104 708 -69 42 -113 43 -161 4z m505 -604 c226 -145 410
-268 410 -275 0 -17 -826 -544 -843 -537 -41 16 -832 530 -829 539 5 15 818
536 837 536 8 0 200 -119 425 -263z m-1157 -742 c204 -130 372 -241 372 -246
0 -11 -5 -15 -410 -275 -240 -153 -374 -234 -392 -234 -16 0 -71 29 -145 78
-65 43 -230 149 -368 237 -268 170 -295 189 -280 204 6 6 170 112 365 237 195
124 371 237 390 249 42 28 -14 58 468 -250z m2009 202 c43 -29 214 -140 381
-247 166 -106 302 -198 302 -204 0 -14 -779 -511 -800 -510 -21 0 -799 496
-800 510 0 5 147 104 328 219 180 115 356 229 391 253 79 54 92 52 198 -21z
m-3025 -977 c216 -138 401 -260 411 -271 16 -19 17 -56 17 -435 0 -256 -4
-415 -10 -419 -5 -3 -161 87 -347 201 -186 114 -364 223 -396 242 -32 20 -65
45 -73 56 -12 17 -14 94 -14 448 0 268 4 428 10 428 5 0 186 -113 402 -250z
m1588 -176 c0 -255 -4 -433 -10 -443 -11 -21 1 -14 -458 -295 -194 -119 -357
-214 -362 -211 -6 4 -10 167 -10 424 0 401 1 419 19 436 32 28 795 515 809
515 9 0 12 -92 12 -426z m728 180 c213 -135 397 -257 410 -271 l22 -24 0 -420
c0 -303 -3 -419 -11 -419 -18 0 -782 471 -806 497 l-23 24 0 430 c0 292 3 429
10 429 6 0 185 -111 398 -246z m1592 -187 l0 -434 -22 -20 c-42 -38 -797 -495
-808 -488 -6 4 -10 149 -10 419 0 379 1 416 18 435 19 24 790 519 810 520 9 1
12 -92 12 -432z m-1735 -983 c226 -140 411 -261 413 -267 2 -12 -808 -520
-837 -524 -21 -3 -836 509 -836 525 0 15 811 522 835 522 8 0 200 -115 425
-256z m-2172 -90 c216 -130 400 -246 410 -257 16 -18 17 -53 17 -436 0 -229
-4 -422 -9 -430 -6 -10 -98 42 -392 222 -211 129 -396 245 -411 257 l-28 22 0
429 c0 302 3 429 11 429 6 0 187 -106 402 -236z m3907 -194 l0 -419 -22 -24
c-33 -35 -795 -500 -808 -492 -6 4 -10 148 -10 419 0 380 1 415 18 434 24 29
802 513 813 506 5 -3 9 -194 9 -424z m-1162 -689 c1 -261 -1 -419 -8 -431 -12
-22 -791 -520 -814 -520 -14 0 -16 39 -16 423 0 323 3 427 13 439 6 9 104 72
217 141 113 68 291 179 395 245 105 66 195 120 200 118 6 -2 11 -151 13 -415z
m-1591 163 c208 -130 390 -249 406 -265 l27 -30 -2 -411 c-2 -284 -6 -412 -14
-415 -13 -4 -794 481 -811 504 -10 13 -13 114 -13 428 0 227 3 415 7 418 3 4
10 7 14 7 4 0 178 -106 386 -236z"/>
</g>
</svg>
